<svg width="20" height="21" viewBox="0 0 20 21" fill="none" xmlns="http://www.w3.org/2000/svg">
<path d="M0.0939941 17.1284C0.0939941 18.7871 1.3624 20.0555 3.02108 20.0555H16.6808C18.3395 20.0555 19.6079 18.7871 19.6079 17.1284V9.32282H0.0939941V17.1284ZM16.6808 2.49295H14.7294V1.51726C14.7294 0.931843 14.3391 0.541565 13.7537 0.541565C13.1683 0.541565 12.778 0.931843 12.778 1.51726V2.49295H6.92386V1.51726C6.92386 0.931843 6.53358 0.541565 5.94816 0.541565C5.36274 0.541565 4.97247 0.931843 4.97247 1.51726V2.49295H3.02108C1.3624 2.49295 0.0939941 3.76136 0.0939941 5.42004V7.37143H19.6079V5.42004C19.6079 3.76136 18.3395 2.49295 16.6808 2.49295Z" fill="#1E56AC"/>
</svg>
