<svg width="16" height="16" viewBox="0 0 16 16" fill="none" xmlns="http://www.w3.org/2000/svg">
<path d="M2.46924 3.11732C2.46924 2.99454 2.51801 2.87678 2.60484 2.78996C2.69166 2.70313 2.80942 2.65436 2.9322 2.65436H3.27665C3.86307 2.65436 4.21492 3.0488 4.41553 3.41547C4.54949 3.65991 4.6464 3.94325 4.72232 4.20004L4.78405 4.19757H12.4989C13.0112 4.19757 13.3816 4.68769 13.2408 5.1809L12.1124 9.13707C12.0113 9.49192 11.7972 9.80414 11.5027 10.0265C11.2083 10.2488 10.8493 10.3691 10.4803 10.3692H6.80874C6.43683 10.3692 6.0752 10.2471 5.77944 10.0216C5.48368 9.79606 5.27016 9.47967 5.17171 9.12102L4.70257 7.40991L3.92479 4.78769L3.92418 4.78275C3.82788 4.43275 3.73776 4.10498 3.60319 3.86053C3.47418 3.62288 3.37047 3.58028 3.27726 3.58028H2.9322C2.80942 3.58028 2.69166 3.53151 2.60484 3.44469C2.51801 3.35786 2.46924 3.24011 2.46924 3.11732ZM6.48158 13.4568C6.80901 13.4568 7.12303 13.3268 7.35456 13.0952C7.58608 12.8637 7.71615 12.5497 7.71615 12.2223C7.71615 11.8948 7.58608 11.5808 7.35456 11.3493C7.12303 11.1178 6.80901 10.9877 6.48158 10.9877C6.15416 10.9877 5.84014 11.1178 5.60861 11.3493C5.37709 11.5808 5.24702 11.8948 5.24702 12.2223C5.24702 12.5497 5.37709 12.8637 5.60861 13.0952C5.84014 13.3268 6.15416 13.4568 6.48158 13.4568ZM10.8026 13.4568C11.13 13.4568 11.444 13.3268 11.6755 13.0952C11.9071 12.8637 12.0371 12.5497 12.0371 12.2223C12.0371 11.8948 11.9071 11.5808 11.6755 11.3493C11.444 11.1178 11.13 10.9877 10.8026 10.9877C10.4751 10.9877 10.1611 11.1178 9.9296 11.3493C9.69807 11.5808 9.568 11.8948 9.568 12.2223C9.568 12.5497 9.69807 12.8637 9.9296 13.0952C10.1611 13.3268 10.4751 13.4568 10.8026 13.4568Z" fill="white"/>
</svg>
